# xmcd CD database file
# Copyright 1993-1996 (C) Ti Kan
#
# Track frame offsets:
#    182
#    20582
#    40640
#    57180
#    88100
#    103992
#    130032
#    173782
#    188537
#    209410
#
# Disc length: 2980 seconds
#
# Revision: 0
# Processed by: cddbd v1.4b41PL1 Copyright (c) Steve Scherf et al.
# Submitted via: MyCDplayer 2.3.2  (wjohn@fix.net)
#
DISCID=810ba20a
DTITLE=A Little Voodoo - 
DTITLE=self titled
DYEAR=1900
DGENRE=
TTITLE0=Why Haven't You Told Me
TTITLE1=Black Cat Moan
TTITLE2=Have You Ever Seen
TTITLE3=Fine Place
TTITLE4=I'll Do You in
TTITLE5=Thrill Is Gone
TTITLE6='Cross The Desert
TTITLE7=Life Of Ease
TTITLE8=Pale Eyes
TTITLE9=Love'll Leave Ya
EXTD=
EXTT0=
EXTT1=
EXTT2=
EXTT3=
EXTT4=
EXTT5=
EXTT6=
EXTT7=
EXTT8=
EXTT9=
PLAYORDER=
